<mxfile host="app.diagrams.net" agent="Mozilla/5.0 (Windows NT 10.0; Win64; x64) AppleWebKit/537.36 (KHTML, like Gecko) Chrome/132.0.0.0 Safari/537.36 Edg/132.0.0.0" version="26.0.6">
  <diagram name="Page-1" id="8Uqs2-PCFn8mC6G0EI60">
    <mxGraphModel dx="884" dy="1490" grid="1" gridSize="10" guides="1" tooltips="1" connect="1" arrows="1" fold="1" page="1" pageScale="1" pageWidth="850" pageHeight="1100" math="0" shadow="0">
      <root>
        <mxCell id="0" />
        <mxCell id="1" parent="0" />
        <mxCell id="KlYMKg8d0Hw80r4B96k4-17" value="" style="ellipse;html=1;shape=startState;fillColor=#000000;strokeColor=#ff0000;" vertex="1" parent="1">
          <mxGeometry x="40" y="45" width="30" height="30" as="geometry" />
        </mxCell>
        <mxCell id="KlYMKg8d0Hw80r4B96k4-18" value="" style="edgeStyle=orthogonalEdgeStyle;html=1;verticalAlign=bottom;endArrow=open;endSize=8;strokeColor=#ff0000;rounded=0;entryX=0;entryY=0.5;entryDx=0;entryDy=0;" edge="1" source="KlYMKg8d0Hw80r4B96k4-17" parent="1" target="KlYMKg8d0Hw80r4B96k4-23">
          <mxGeometry relative="1" as="geometry">
            <mxPoint x="180" y="55" as="targetPoint" />
          </mxGeometry>
        </mxCell>
        <mxCell id="KlYMKg8d0Hw80r4B96k4-46" style="edgeStyle=orthogonalEdgeStyle;rounded=0;orthogonalLoop=1;jettySize=auto;html=1;entryX=0;entryY=0.5;entryDx=0;entryDy=0;strokeColor=#FF0000;" edge="1" parent="1" source="KlYMKg8d0Hw80r4B96k4-23" target="KlYMKg8d0Hw80r4B96k4-29">
          <mxGeometry relative="1" as="geometry" />
        </mxCell>
        <mxCell id="KlYMKg8d0Hw80r4B96k4-23" value="Truy cập vào hệ thống" style="rounded=1;whiteSpace=wrap;html=1;arcSize=40;fontColor=#000000;fillColor=#ffffc0;strokeColor=#ff0000;" vertex="1" parent="1">
          <mxGeometry x="200" y="40" width="120" height="40" as="geometry" />
        </mxCell>
        <mxCell id="KlYMKg8d0Hw80r4B96k4-29" value="Hệ thống hiển thị trang đăng nhập" style="rounded=1;whiteSpace=wrap;html=1;arcSize=40;fontColor=#000000;fillColor=#ffffc0;strokeColor=#ff0000;" vertex="1" parent="1">
          <mxGeometry x="400" y="40" width="120" height="40" as="geometry" />
        </mxCell>
        <mxCell id="KlYMKg8d0Hw80r4B96k4-51" value="Đăng nhập" style="rhombus;whiteSpace=wrap;html=1;fontColor=#000000;fillColor=#ffffc0;strokeColor=#ff0000;" vertex="1" parent="1">
          <mxGeometry x="400" y="120" width="120" height="80" as="geometry" />
        </mxCell>
        <mxCell id="KlYMKg8d0Hw80r4B96k4-54" value="Đăng ký" style="rhombus;whiteSpace=wrap;html=1;fontColor=#000000;fillColor=#ffffc0;strokeColor=#ff0000;" vertex="1" parent="1">
          <mxGeometry x="400" y="240" width="120" height="80" as="geometry" />
        </mxCell>
        <mxCell id="KlYMKg8d0Hw80r4B96k4-61" value="Quên mật khẩu" style="rhombus;whiteSpace=wrap;html=1;fontColor=#000000;fillColor=#ffffc0;strokeColor=#ff0000;" vertex="1" parent="1">
          <mxGeometry x="400" y="360" width="120" height="80" as="geometry" />
        </mxCell>
        <mxCell id="KlYMKg8d0Hw80r4B96k4-70" value="Thoát" style="rhombus;whiteSpace=wrap;html=1;fontColor=#000000;fillColor=#ffffc0;strokeColor=#ff0000;" vertex="1" parent="1">
          <mxGeometry x="400" y="480" width="120" height="80" as="geometry" />
        </mxCell>
        <mxCell id="KlYMKg8d0Hw80r4B96k4-78" style="edgeStyle=orthogonalEdgeStyle;rounded=0;orthogonalLoop=1;jettySize=auto;html=1;exitX=0.5;exitY=1;exitDx=0;exitDy=0;" edge="1" parent="1" source="KlYMKg8d0Hw80r4B96k4-61" target="KlYMKg8d0Hw80r4B96k4-61">
          <mxGeometry relative="1" as="geometry" />
        </mxCell>
        <mxCell id="KlYMKg8d0Hw80r4B96k4-79" style="edgeStyle=orthogonalEdgeStyle;rounded=0;orthogonalLoop=1;jettySize=auto;html=1;exitX=0.5;exitY=1;exitDx=0;exitDy=0;" edge="1" parent="1" source="KlYMKg8d0Hw80r4B96k4-61" target="KlYMKg8d0Hw80r4B96k4-61">
          <mxGeometry relative="1" as="geometry" />
        </mxCell>
        <mxCell id="KlYMKg8d0Hw80r4B96k4-81" style="edgeStyle=orthogonalEdgeStyle;rounded=0;orthogonalLoop=1;jettySize=auto;html=1;exitX=0.5;exitY=1;exitDx=0;exitDy=0;" edge="1" parent="1" source="KlYMKg8d0Hw80r4B96k4-70" target="KlYMKg8d0Hw80r4B96k4-70">
          <mxGeometry relative="1" as="geometry" />
        </mxCell>
        <mxCell id="KlYMKg8d0Hw80r4B96k4-83" value="&lt;font style=&quot;font-size: 12px;&quot;&gt;Kiểm tra&lt;br&gt;username,&lt;br&gt;pass&lt;/font&gt;" style="rhombus;whiteSpace=wrap;html=1;fontColor=#000000;fillColor=#ffffc0;strokeColor=#ff0000;" vertex="1" parent="1">
          <mxGeometry x="560" y="120" width="120" height="80" as="geometry" />
        </mxCell>
        <mxCell id="KlYMKg8d0Hw80r4B96k4-89" value="" style="ellipse;html=1;shape=endState;fillColor=#000000;strokeColor=#ff0000;" vertex="1" parent="1">
          <mxGeometry x="1040" y="150" width="30" height="30" as="geometry" />
        </mxCell>
        <mxCell id="KlYMKg8d0Hw80r4B96k4-90" value="Vào giao diện hệ thống" style="rounded=1;whiteSpace=wrap;html=1;arcSize=40;fontColor=#000000;fillColor=#ffffc0;strokeColor=#ff0000;" vertex="1" parent="1">
          <mxGeometry x="720" y="140" width="120" height="40" as="geometry" />
        </mxCell>
        <mxCell id="KlYMKg8d0Hw80r4B96k4-91" value="&lt;font style=&quot;font-size: 12px;&quot;&gt;Kiểm tra&lt;br&gt;username,&lt;br&gt;pass&lt;/font&gt;" style="rhombus;whiteSpace=wrap;html=1;fontColor=#000000;fillColor=#ffffc0;strokeColor=#ff0000;" vertex="1" parent="1">
          <mxGeometry x="320" y="-230" width="120" height="80" as="geometry" />
        </mxCell>
        <mxCell id="KlYMKg8d0Hw80r4B96k4-92" value="" style="ellipse;html=1;shape=startState;fillColor=#000000;strokeColor=#ff0000;" vertex="1" parent="1">
          <mxGeometry x="110" y="-190" width="30" height="30" as="geometry" />
        </mxCell>
        <mxCell id="KlYMKg8d0Hw80r4B96k4-93" value="" style="ellipse;html=1;shape=endState;fillColor=#000000;strokeColor=#ff0000;" vertex="1" parent="1">
          <mxGeometry x="210" y="-190" width="30" height="30" as="geometry" />
        </mxCell>
        <mxCell id="KlYMKg8d0Hw80r4B96k4-107" value="Nhập username. pass" style="rounded=1;whiteSpace=wrap;html=1;arcSize=40;fontColor=#000000;fillColor=#ffffc0;strokeColor=#ff0000;" vertex="1" parent="1">
          <mxGeometry x="200" y="140" width="120" height="40" as="geometry" />
        </mxCell>
        <mxCell id="KlYMKg8d0Hw80r4B96k4-120" value="Nhập username. pass" style="rounded=1;whiteSpace=wrap;html=1;arcSize=40;fontColor=#000000;fillColor=#ffffc0;strokeColor=#ff0000;" vertex="1" parent="1">
          <mxGeometry x="210" y="260" width="120" height="40" as="geometry" />
        </mxCell>
      </root>
    </mxGraphModel>
  </diagram>
</mxfile>
